<svg xmlns="http://www.w3.org/2000/svg" viewBox="-120 -120 240 240" fill="currentColor" aria-hidden="true">
  <g>
    <rect x="-5" y="-105" width="10" height="58" rx="3"/>
    <rect x="-5" y="-105" width="10" height="58" rx="3" transform="rotate(22.5)"/>
    <rect x="-5" y="-105" width="10" height="58" rx="3" transform="rotate(45)"/>
    <rect x="-5" y="-105" width="10" height="58" rx="3" transform="rotate(67.5)"/>
    <rect x="-5" y="-105" width="10" height="58" rx="3" transform="rotate(90)"/>
    <rect x="-5" y="-105" width="10" height="58" rx="3" transform="rotate(112.5)"/>
    <rect x="-5" y="-105" width="10" height="58" rx="3" transform="rotate(135)"/>
    <rect x="-5" y="-105" width="10" height="58" rx="3" transform="rotate(157.5)"/>
    <rect x="-5" y="-105" width="10" height="58" rx="3" transform="rotate(180)"/>
    <rect x="-5" y="-105" width="10" height="58" rx="3" transform="rotate(202.5)"/>
    <rect x="-5" y="-105" width="10" height="58" rx="3" transform="rotate(225)"/>
    <rect x="-5" y="-105" width="10" height="58" rx="3" transform="rotate(247.5)"/>
    <rect x="-5" y="-105" width="10" height="58" rx="3" transform="rotate(270)"/>
    <rect x="-5" y="-105" width="10" height="58" rx="3" transform="rotate(292.5)"/>
    <rect x="-5" y="-105" width="10" height="58" rx="3" transform="rotate(315)"/>
    <rect x="-5" y="-105" width="10" height="58" rx="3" transform="rotate(337.5)"/>
  </g>
</svg>
